<?xml version="1.0" encoding="UTF-8" standalone="no"?>
<!DOCTYPE svg PUBLIC "-//W3C//DTD SVG 1.1//EN"
 "http://www.w3.org/Graphics/SVG/1.1/DTD/svg11.dtd">
<!-- Generated by graphviz version 2.50.0 (0)
 -->
<!-- Pages: 1 -->
<svg width="116pt" height="332pt"
 viewBox="0.00 0.00 115.89 332.00" xmlns="http://www.w3.org/2000/svg" xmlns:xlink="http://www.w3.org/1999/xlink">
<g id="graph0" class="graph" transform="scale(1 1) rotate(0) translate(4 328)">
<polygon fill="white" stroke="transparent" points="-4,4 -4,-328 111.89,-328 111.89,4 -4,4"/>
<!-- frontend -->
<g id="node1" class="node">
<title>frontend</title>
<ellipse fill="none" stroke="black" cx="53.95" cy="-306" rx="50.89" ry="18"/>
<text text-anchor="middle" x="53.95" y="-302.3" font-family="Times,serif" font-size="14.00">frontend</text>
</g>
<!-- krakend -->
<g id="node2" class="node">
<title>krakend</title>
<ellipse fill="none" stroke="black" cx="53.95" cy="-234" rx="48.19" ry="18"/>
<text text-anchor="middle" x="53.95" y="-230.3" font-family="Times,serif" font-size="14.00">krakend</text>
</g>
<!-- frontend&#45;&gt;krakend -->
<g id="edge1" class="edge">
<title>frontend&#45;&gt;krakend</title>
<path fill="none" stroke="black" d="M53.95,-287.7C53.95,-279.98 53.95,-270.71 53.95,-262.11"/>
<polygon fill="black" stroke="black" points="57.45,-262.1 53.95,-252.1 50.45,-262.1 57.45,-262.1"/>
</g>
<!-- auth -->
<g id="node3" class="node">
<title>auth</title>
<ellipse fill="none" stroke="black" cx="53.95" cy="-162" rx="31.7" ry="18"/>
<text text-anchor="middle" x="53.95" y="-158.3" font-family="Times,serif" font-size="14.00">auth</text>
</g>
<!-- krakend&#45;&gt;auth -->
<g id="edge2" class="edge">
<title>krakend&#45;&gt;auth</title>
<path fill="none" stroke="black" d="M53.95,-215.7C53.95,-207.98 53.95,-198.71 53.95,-190.11"/>
<polygon fill="black" stroke="black" points="57.45,-190.1 53.95,-180.1 50.45,-190.1 57.45,-190.1"/>
</g>
<!-- users -->
<g id="node4" class="node">
<title>users</title>
<ellipse fill="none" stroke="black" cx="53.95" cy="-90" rx="36.29" ry="18"/>
<text text-anchor="middle" x="53.95" y="-86.3" font-family="Times,serif" font-size="14.00">users</text>
</g>
<!-- auth&#45;&gt;users -->
<g id="edge3" class="edge">
<title>auth&#45;&gt;users</title>
<path fill="none" stroke="black" d="M53.95,-143.7C53.95,-135.98 53.95,-126.71 53.95,-118.11"/>
<polygon fill="black" stroke="black" points="57.45,-118.1 53.95,-108.1 50.45,-118.1 57.45,-118.1"/>
</g>
<!-- mongodb -->
<g id="node5" class="node">
<title>mongodb</title>
<ellipse fill="none" stroke="black" cx="53.95" cy="-18" rx="53.89" ry="18"/>
<text text-anchor="middle" x="53.95" y="-14.3" font-family="Times,serif" font-size="14.00">mongodb</text>
</g>
<!-- users&#45;&gt;mongodb -->
<g id="edge4" class="edge">
<title>users&#45;&gt;mongodb</title>
<path fill="none" stroke="black" d="M53.95,-71.7C53.95,-63.98 53.95,-54.71 53.95,-46.11"/>
<polygon fill="black" stroke="black" points="57.45,-46.1 53.95,-36.1 50.45,-46.1 57.45,-46.1"/>
</g>
</g>
</svg>
